<svg xmlns="http://www.w3.org/2000/svg" viewBox="0 0 100 125" x="0px" y="0px"><title>Artboard 29</title><g data-name="Layer 2"><path d="M65.45,53.17H46.82V34.55a2,2,0,0,0-2-2H24.2a2,2,0,0,0-2,2V75.79a2,2,0,0,0,2,2H65.45a2,2,0,0,0,2-2V55.17A2,2,0,0,0,65.45,53.17Zm-39.25,4H42.82V73.79H26.2Zm16.62-4H26.2V36.55H42.82ZM63.45,73.79H46.83V57.17H63.45Z"/><path d="M75.8,22.21H55.18a2,2,0,0,0-2,2V44.83a2,2,0,0,0,2,2H75.8a2,2,0,0,0,2-2V24.21A2,2,0,0,0,75.8,22.21Zm-2,20.62H57.18V26.21H73.8Z"/></g><text x="0" y="115" fill="#000000" font-size="5px" font-weight="bold" font-family="'Helvetica Neue', Helvetica, Arial-Unicode, Arial, Sans-serif">Created by Florent B</text><text x="0" y="120" fill="#000000" font-size="5px" font-weight="bold" font-family="'Helvetica Neue', Helvetica, Arial-Unicode, Arial, Sans-serif">from the Noun Project</text></svg>